<?xml version="1.0" encoding="UTF-8" standalone="no"?>
<!-- Created with Inkscape (http://www.inkscape.org/) -->

<svg
   xmlns:dc="http://purl.org/dc/elements/1.1/"
   xmlns:cc="http://creativecommons.org/ns#"
   xmlns:rdf="http://www.w3.org/1999/02/22-rdf-syntax-ns#"
   xmlns:svg="http://www.w3.org/2000/svg"
   xmlns="http://www.w3.org/2000/svg"
   xmlns:sodipodi="http://sodipodi.sourceforge.net/DTD/sodipodi-0.dtd"
   xmlns:inkscape="http://www.inkscape.org/namespaces/inkscape"
   id="svg2"
   version="1.1"
   inkscape:version="0.48.2 r9819"
   width="699.56866"
   height="471.77567"
   sodipodi:docname="books1.png">
  <metadata
     id="metadata8">
    <rdf:RDF>
      <cc:Work
         rdf:about="">
        <dc:format>image/svg+xml</dc:format>
        <dc:type
           rdf:resource="http://purl.org/dc/dcmitype/StillImage" />
        <dc:title></dc:title>
      </cc:Work>
    </rdf:RDF>
  </metadata>
  <defs
     id="defs6" />
  <sodipodi:namedview
     pagecolor="#ffffff"
     bordercolor="#666666"
     borderopacity="1"
     objecttolerance="10"
     gridtolerance="10"
     guidetolerance="10"
     inkscape:pageopacity="0"
     inkscape:pageshadow="2"
     inkscape:window-width="1920"
     inkscape:window-height="996"
     id="namedview4"
     showgrid="false"
     fit-margin-top="0"
     fit-margin-left="0"
     fit-margin-right="0"
     fit-margin-bottom="0"
     inkscape:zoom="0.60981912"
     inkscape:cx="589.47622"
     inkscape:cy="230.76018"
     inkscape:window-x="-8"
     inkscape:window-y="-8"
     inkscape:window-maximized="1"
     inkscape:current-layer="svg2" />
  <path
     style="fill:#ffffff;fill-opacity:1;stroke:#000000;stroke-width:9.19999981;stroke-linecap:butt;stroke-linejoin:miter;stroke-miterlimit:4;stroke-opacity:1;stroke-dasharray:none"
     d="M 462.93263,12.942616 C 382.25719,-10.080278 317.21287,16.232566 261.23348,71.156599 225.80907,35.056204 136.76996,60.09537 39.856356,94.114227 L 31.657203,140.02948 4.5999999,145.76889 78.392373,467.17567 390.78009,352.38753 l 7.37923,9.01907 44.27543,-14.75847 2.45974,-16.39831 250.07416,-91.01059 -21.3178,-18.03814 7.37924,-2.45974 -7.37924,-9.01907 11.52855,-2.60042 z"
     id="path2987"
     inkscape:connector-curvature="0"
     sodipodi:nodetypes="cccccccccccccccc" />
  <path
     style="fill:#c8c8c8;fill-opacity:1;stroke:none"
     d="m 25.67058,145.00674 -1.159536,16.81326 64.354208,271.33126 16.233498,5.2179 23.1907,7.53698 L 79.009202,466.77778 4.2191771,147.32581 z"
     id="path3771"
     inkscape:connector-curvature="0" />
  <path
     style="fill:#000000;fill-opacity:1;stroke:#000000;stroke-width:1px;stroke-linecap:butt;stroke-linejoin:miter;stroke-opacity:1"
     d="M 98.070339,431.91931 C 187.85975,398.80801 266.65165,358.78398 392.41992,348.28796 L 125.94746,446.67779 C 90.551861,440.12685 101.11281,436.44818 98.070339,431.91931 z"
     id="path2989"
     inkscape:connector-curvature="0"
     sodipodi:nodetypes="cccc" />
  <path
     style="fill:#000000;fill-opacity:1;stroke:#000000;stroke-width:1px;stroke-linecap:butt;stroke-linejoin:miter;stroke-opacity:1"
     d="m 674.76918,216.46775 15.27997,22.77148 -245.79236,89.24152 -5.63257,17.63198 -39.70848,14.30009 -6.26071,-12.56867 10.12417,4.57197 c 4.55779,-6.93508 16.93907,-14.11781 31.92771,-14.49933 16.86334,-51.53377 110.90023,-114.74397 240.06227,-121.44904 z"
     id="path2991"
     inkscape:connector-curvature="0"
     sodipodi:nodetypes="ccccccccc" />
  <path
     style="fill:#008000;stroke:#000000;stroke-width:2.70000005;stroke-linecap:butt;stroke-linejoin:miter;stroke-miterlimit:4;stroke-opacity:1;stroke-dasharray:none"
     d="M 261.23348,73.616345 410.45805,335.16931"
     id="path3761"
     inkscape:connector-curvature="0" />
  <path
     style="fill:none;stroke:#000000;stroke-width:2;stroke-linecap:butt;stroke-linejoin:miter;stroke-miterlimit:4;stroke-opacity:1;stroke-dasharray:none"
     d="M 24.277966,144.12906 94.790678,425.35999 211.21865,390.10363"
     id="path3763"
     inkscape:connector-curvature="0" />
  <path
     style="fill:none;stroke:#000000;stroke-width:1.29999995;stroke-linecap:butt;stroke-linejoin:miter;stroke-miterlimit:4;stroke-opacity:1;stroke-dasharray:none"
     d="m 36.765642,126.289 c 0,2.45975 72.924188,256.53487 72.924188,256.53487 205.02478,-67.59921 260.49282,-67.4505 286.57624,-53.9908"
     id="path3765"
     inkscape:connector-curvature="0"
     sodipodi:nodetypes="ccc" />
  <path
     style="fill:none;stroke:#000000;stroke-width:2;stroke-linecap:butt;stroke-linejoin:miter;stroke-miterlimit:4;stroke-opacity:1;stroke-dasharray:none"
     d="M 96.020551,424.13012 110.16409,382.10946"
     id="path3769"
     inkscape:connector-curvature="0"
     sodipodi:nodetypes="cc" />
  <path
     style="fill:#c8c8c8;fill-opacity:1;stroke:none"
     d="M 291.78393,81.812067 C 327.1496,46.16361 379.33837,29.926426 444.84258,29.053212 L 585.14635,171.67605 C 524.56354,189.704 463.33757,202.65812 409.47676,273.71516 z"
     id="path3773"
     inkscape:connector-curvature="0"
     sodipodi:nodetypes="ccccc" />
  <path
     style="fill:none;stroke:#000000;stroke-width:2;stroke-linecap:butt;stroke-linejoin:miter;stroke-miterlimit:4;stroke-opacity:1;stroke-dasharray:none"
     d="m 521.66179,256.90189 c 29.14933,-18.31918 70.90835,-37.24355 144.07226,-57.10711 L 451.79979,13.399485"
     id="path3775"
     inkscape:connector-curvature="0"
     sodipodi:nodetypes="ccc" />
  <path
     style="fill:none;stroke:#000000;stroke-width:2;stroke-linecap:butt;stroke-linejoin:miter;stroke-miterlimit:4;stroke-opacity:1;stroke-dasharray:none"
     d="m 531.80773,254.58282 c 42.74264,-20.85594 87.23751,-37.9571 135.37574,-47.25106"
     id="path3777"
     inkscape:connector-curvature="0"
     sodipodi:nodetypes="cc" />
</svg>
