<?xml version="1.0" encoding="UTF-8" standalone="no"?>
<!-- Created with Inkscape (http://www.inkscape.org/) -->
<svg
   xmlns:dc="http://purl.org/dc/elements/1.1/"
   xmlns:cc="http://web.resource.org/cc/"
   xmlns:rdf="http://www.w3.org/1999/02/22-rdf-syntax-ns#"
   xmlns:svg="http://www.w3.org/2000/svg"
   xmlns="http://www.w3.org/2000/svg"
   xmlns:xlink="http://www.w3.org/1999/xlink"
   xmlns:sodipodi="http://sodipodi.sourceforge.net/DTD/sodipodi-0.dtd"
   xmlns:inkscape="http://www.inkscape.org/namespaces/inkscape"
   width="346.44351"
   height="574.89545"
   id="svg2"
   sodipodi:version="0.32"
   inkscape:version="0.45"
   sodipodi:docbase="/home/evans/Desktop"
   sodipodi:docname="jonata_Cola.svg"
   version="1.0"
   inkscape:output_extension="org.inkscape.output.svg.inkscape"
   sodipodi:modified="true">
  <defs
     id="defs4">
    <linearGradient
       id="linearGradient11719">
      <stop
         style="stop-color:black;stop-opacity:0;"
         offset="0"
         id="stop11721" />
      <stop
         style="stop-color:black;stop-opacity:0;"
         offset="0.60000002"
         id="stop11723" />
      <stop
         style="stop-color:black;stop-opacity:1;"
         offset="1"
         id="stop11725" />
    </linearGradient>
    <linearGradient
       id="linearGradient1400">
      <stop
         id="stop1401"
         offset="0.0000000"
         style="stop-color:#000000;stop-opacity:0.67843139;" />
      <stop
         id="stop1403"
         offset="0.56999999"
         style="stop-color:#000000;stop-opacity:0.32941177;" />
      <stop
         id="stop1402"
         offset="1.0000000"
         style="stop-color:#000000;stop-opacity:0.00000000;" />
    </linearGradient>
    <linearGradient
       id="linearGradient865">
      <stop
         id="stop866"
         offset="0.00000000"
         style="stop-color:#ffffff;stop-opacity:1.0000000;" />
      <stop
         id="stop868"
         offset="1.0000000"
         style="stop-color:#ffffff;stop-opacity:0.00000000;" />
    </linearGradient>
    <linearGradient
       id="linearGradient883">
      <stop
         id="stop884"
         offset="0.0000000"
         style="stop-color:#1f1f1f;stop-opacity:0.55371898;" />
      <stop
         id="stop885"
         offset="1.0000000"
         style="stop-color:#000000;stop-opacity:0.0000000;" />
    </linearGradient>
    <radialGradient
       r="3.4868481"
       fy="506.66241"
       fx="540.40192"
       cy="506.66241"
       cx="540.40192"
       gradientTransform="matrix(-2.046411,1.796008,-2.283758,-1.318528,2792.812,210.3197)"
       gradientUnits="userSpaceOnUse"
       id="radialGradient16927"
       xlink:href="#linearGradient11719"
       inkscape:collect="always" />
    <linearGradient
       y2="512.15503"
       x2="540.17554"
       y1="503.68408"
       x1="540.42206"
       gradientTransform="matrix(-1.195656,0,0,-0.857143,1173.17,945.0374)"
       gradientUnits="userSpaceOnUse"
       id="linearGradient16925"
       xlink:href="#linearGradient883"
       inkscape:collect="always" />
    <linearGradient
       y2="535.22437"
       x2="528.23553"
       y1="535.22437"
       x1="506.20261"
       gradientTransform="matrix(1,0,0,0.968253,1.172709,17.75608)"
       gradientUnits="userSpaceOnUse"
       id="linearGradient16923"
       xlink:href="#linearGradient865"
       inkscape:collect="always" />
    <linearGradient
       y2="535.22437"
       x2="528.23553"
       y1="535.22437"
       x1="506.20261"
       gradientTransform="matrix(0.882628,0,0,0.932405,60.99663,35.96396)"
       gradientUnits="userSpaceOnUse"
       id="linearGradient16921"
       xlink:href="#linearGradient865"
       inkscape:collect="always" />
    <radialGradient
       r="17.453125"
       fy="553.09491"
       fx="533.23328"
       cy="553.09491"
       cx="533.23328"
       gradientTransform="matrix(1.42241,9.21334e-3,-3.593477e-3,0.554782,-223.2544,244.4352)"
       gradientUnits="userSpaceOnUse"
       id="radialGradient16919"
       xlink:href="#linearGradient11719"
       inkscape:collect="always" />
    <radialGradient
       r="13.984375"
       fy="555.12567"
       fx="533.26349"
       cy="555.12567"
       cx="533.26349"
       gradientTransform="matrix(0.754006,0,0,0.234902,131.1814,431.012)"
       gradientUnits="userSpaceOnUse"
       id="radialGradient16917"
       xlink:href="#linearGradient1400"
       inkscape:collect="always" />
    <radialGradient
       r="17.921875"
       fy="331.66568"
       fx="508.64053"
       cy="331.66568"
       cx="508.64053"
       gradientTransform="matrix(0,-0.571572,0.912573,0,230.5636,801.6942)"
       gradientUnits="userSpaceOnUse"
       id="radialGradient16915"
       xlink:href="#linearGradient1400"
       inkscape:collect="always" />
    <radialGradient
       r="17.921875"
       fy="324.50958"
       fx="521.02045"
       cy="324.50958"
       cx="521.02045"
       gradientTransform="matrix(0,-1.090822,1.478056,8.469058e-7,53.60487,1070.369)"
       gradientUnits="userSpaceOnUse"
       id="radialGradient16913"
       xlink:href="#linearGradient11719"
       inkscape:collect="always" />
    <radialGradient
       r="17.921875"
       fy="326.56235"
       fx="506.72284"
       cy="326.56235"
       cx="506.72284"
       gradientTransform="matrix(0,-1.122942,1.521574,8.718405e-7,38.84615,1085.79)"
       gradientUnits="userSpaceOnUse"
       id="radialGradient16911"
       xlink:href="#linearGradient11719"
       inkscape:collect="always" />
    <radialGradient
       r="17.921875"
       fy="331.66568"
       fx="508.64053"
       cy="331.66568"
       cx="508.64053"
       gradientTransform="matrix(0,-0.571572,0.836424,0,255.8196,798.1693)"
       gradientUnits="userSpaceOnUse"
       id="radialGradient16909"
       xlink:href="#linearGradient1400"
       inkscape:collect="always" />
    <radialGradient
       r="17.921875"
       fy="340.95706"
       fx="505.31256"
       cy="340.95706"
       cx="505.31256"
       gradientTransform="matrix(1.716846,-0.460031,0.391245,1.460142,-468.3497,257.1086)"
       gradientUnits="userSpaceOnUse"
       id="radialGradient16907"
       xlink:href="#linearGradient11719"
       inkscape:collect="always" />
    <radialGradient
       r="17.921875"
       fy="332.63242"
       fx="504.93213"
       cy="332.63242"
       cx="504.93213"
       gradientTransform="matrix(1.320736e-6,-2.185277,-1.390497,0,995.756,1618.507)"
       gradientUnits="userSpaceOnUse"
       id="radialGradient16905"
       xlink:href="#linearGradient11719"
       inkscape:collect="always" />
    <radialGradient
       r="17.453125"
       fy="532.54688"
       fx="533.23438"
       cy="532.54688"
       cx="533.23438"
       gradientTransform="matrix(1.341203,0,0,3.562226,-181.9413,-1364.506)"
       gradientUnits="userSpaceOnUse"
       id="radialGradient16903"
       xlink:href="#linearGradient11719"
       inkscape:collect="always" />
  </defs>
  <sodipodi:namedview
     id="base"
     pagecolor="#ffffff"
     bordercolor="#666666"
     borderopacity="1.0"
     inkscape:pageopacity="0.0"
     inkscape:pageshadow="2"
     inkscape:zoom="0.79666667"
     inkscape:cx="250"
     inkscape:cy="302.89958"
     inkscape:document-units="px"
     inkscape:current-layer="layer1"
     inkscape:window-width="1024"
     inkscape:window-height="697"
     inkscape:window-x="0"
     inkscape:window-y="24"
     showguides="true"
     inkscape:guide-bbox="true"
     width="500px"
     height="600px"
     units="cm"
     inkscape:showpageshadow="false" />
  <metadata
     id="metadata7">
    <rdf:RDF>
      <cc:Work
         rdf:about="">
        <dc:format>image/svg+xml</dc:format>
        <dc:type
           rdf:resource="http://purl.org/dc/dcmitype/StillImage" />
      </cc:Work>
    </rdf:RDF>
  </metadata>
  <g
     inkscape:label="Layer 1"
     inkscape:groupmode="layer"
     id="layer1"
     transform="translate(-75.313805,-11.297072)">
    <g
       transform="matrix(-0.134786,-0.603324,0.712838,0,115.9323,861.1654)"
       id="g4084" />
    <g
       transform="matrix(-0.134786,-0.603324,0.712838,0,-474.53226,-459.553)"
       id="g8602" />
    <g
       id="g16881"
       transform="matrix(8.1417942,0,0,8.1417942,-4086.8562,-4045.8785)"
       inkscape:export-filename="C:\DOCUME~1\ADMINI~1\Desktop\g8509.png"
       inkscape:export-xdpi="599"
       inkscape:export-ydpi="599">
      <path
         transform="matrix(0.9711,0,0,0.993369,14.84201,3.765127)"
         d="M 533.25,499.25 C 529.54926,499.24996 526.14212,499.88898 523.34375,501.03125 C 520.90302,502.02753 518.98546,503.49619 517.78125,505.4375 C 517.53697,505.60873 517.29895,505.77906 517.0625,505.96875 C 516.6813,506.2747 516.64647,506.28609 517,506 C 517.30036,505.75707 517.27566,505.75732 516.90625,506.0625 C 516.72944,506.20167 516.58652,506.33392 516.40625,506.5 C 516.05845,506.8184 515.76212,507.1312 515.5,507.4375 C 515.29248,507.68075 515.21631,507.79288 515.25,507.75 C 514.90498,508.1885 514.60741,508.66321 514.34375,509.1875 C 514.33323,509.19781 514.32281,509.20823 514.3125,509.21875 C 514.25549,509.33503 514.16975,509.50425 514.0625,509.78125 C 514.05416,509.802 514.07015,509.79231 514.0625,509.8125 C 514.19622,509.47689 514.1842,509.48121 514.03125,509.875 C 514.03118,509.88542 514.03118,509.89583 514.03125,509.90625 C 513.96079,510.09149 513.85426,510.31859 513.78125,510.59375 C 513.8488,510.34621 513.83579,510.36449 513.75,510.71875 C 513.74993,510.72917 513.74993,510.73958 513.75,510.75 C 513.66194,511.12954 513.6566,511.23185 513.6875,511.0625 C 513.62817,511.37486 513.5625,511.77617 513.5625,512.28125 L 513.5625,514.9375 L 513.5625,554.9375 C 513.5625,557.81215 515.44503,560.15623 517.90625,561.84375 C 519.15729,563.73499 521.05984,565.15429 523.5,566.125 C 526.26583,567.22526 529.62145,567.84379 533.25,567.84375 C 536.90208,567.84375 540.28613,567.20811 543.0625,566.09375 C 545.42669,565.14483 547.25303,563.75079 548.5,561.9375 C 548.50147,561.93651 548.52815,561.90805 548.53125,561.90625 C 548.57137,561.88289 548.71,561.80674 549,561.59375 C 549.76703,561.03041 550.43826,560.40894 551,559.75 C 552.14131,558.41121 552.90628,556.74002 552.90625,554.9375 L 552.90625,512.28125 C 552.90625,511.76964 552.83794,511.36625 552.78125,511.0625 C 552.7055,510.6566 552.70039,510.66242 552.75,511.09375 C 552.74323,511.02036 552.7328,510.94735 552.71875,510.875 C 552.70822,510.80667 552.73787,510.83034 552.71875,510.75 C 552.62838,510.37032 552.61411,510.31576 552.6875,510.59375 C 552.41295,509.54108 551.89424,508.57519 551.21875,507.71875 C 551.13401,507.61132 551.05887,507.53714 551,507.46875 C 550.86875,507.31321 550.76079,507.20541 550.65625,507.09375 C 550.66323,507.1012 550.56108,506.93212 550.3125,506.6875 C 550.30208,506.68743 550.29167,506.68743 550.28125,506.6875 C 550.01118,506.42571 549.93671,506.38429 550.0625,506.5 C 549.88348,506.33531 549.70688,506.16775 549.5,506 C 549.37464,505.89834 549.25156,505.82253 549.15625,505.75 C 549.10568,505.71152 549.00914,505.64714 548.9375,505.59375 C 547.75961,503.544 545.70599,502.06156 543.1875,501.03125 C 540.37983,499.88263 536.96414,499.25 533.25,499.25 z "
         id="path16879"
         style="fill:#000000;fill-opacity:1;stroke:none;stroke-width:8;stroke-linecap:round;stroke-linejoin:round;stroke-miterlimit:4;stroke-dasharray:none;stroke-opacity:1"
         inkscape:original="M 533.25 501.46875 C 526.37005 501.46867 520.62598 503.89729 519.1875 507.125 C 519.17514 507.13343 519.16856 507.14779 519.15625 507.15625 C 518.90485 507.32903 518.66441 507.50546 518.4375 507.6875 C 518.42595 507.69677 518.41773 507.70946 518.40625 507.71875 C 518.37712 507.74231 518.3412 507.75754 518.3125 507.78125 C 518.17163 507.89213 518.03239 508.00879 517.90625 508.125 C 517.63727 508.37124 517.40979 508.61525 517.1875 508.875 C 517.11825 508.95617 517.06484 509.04248 517 509.125 C 516.72943 509.46888 516.49514 509.82432 516.3125 510.1875 C 516.24499 510.32518 516.17925 510.45363 516.125 510.59375 C 516.12125 510.60308 516.12872 510.61568 516.125 510.625 C 516.11633 510.64676 516.10219 510.66577 516.09375 510.6875 C 516.03408 510.84437 515.97986 510.99661 515.9375 511.15625 C 515.92888 511.18784 515.91397 511.21812 515.90625 511.25 C 515.88986 511.32064 515.88798 511.39761 515.875 511.46875 C 515.8241 511.73672 515.78125 512.00701 515.78125 512.28125 L 515.78125 514.9375 L 515.78125 554.9375 C 515.78125 556.89604 517.0929 558.70531 519.28125 560.15625 C 520.85529 563.28975 526.50437 565.62508 533.25 565.625 C 540.03896 565.625 545.71834 563.25746 547.25 560.09375 C 547.39489 559.99636 547.55072 559.91296 547.6875 559.8125 C 548.31666 559.35042 548.86928 558.83241 549.3125 558.3125 C 550.19895 557.27267 550.68752 556.1395 550.6875 554.9375 L 550.6875 512.28125 C 550.6875 512.00945 550.64338 511.73465 550.59375 511.46875 C 550.58586 511.42647 550.56737 511.38609 550.5625 511.34375 C 550.55597 511.31361 550.56965 511.28005 550.5625 511.25 C 550.55495 511.21828 550.53959 511.18784 550.53125 511.15625 C 550.34425 510.43925 549.98385 509.74684 549.46875 509.09375 C 549.41969 509.03155 549.36541 508.96772 549.3125 508.90625 C 549.22475 508.80226 549.12666 508.69565 549.03125 508.59375 C 548.93638 508.49242 548.84983 508.37949 548.75 508.28125 C 548.69191 508.22494 548.62292 508.18058 548.5625 508.125 C 548.40893 507.98372 548.26195 507.85514 548.09375 507.71875 C 548.00469 507.64653 547.90553 507.57079 547.8125 507.5 C 547.73089 507.4379 547.6471 507.37346 547.5625 507.3125 C 547.49187 507.26151 547.41648 507.20644 547.34375 507.15625 C 545.93273 503.91026 540.15599 501.46875 533.25 501.46875 z "
         inkscape:radius="2.216037"
         sodipodi:type="inkscape:offset" />
      <path
         sodipodi:nodetypes="ccccscccc"
         id="path16720"
         d="M 533.25,501.46875 C 526.37005,501.46867 520.62598,503.89729 519.1875,507.125 C 517.06808,508.57098 515.78125,510.35592 515.78125,512.28125 L 515.78125,554.9375 C 515.78125,559.74547 523.60273,563.625 533.21875,563.625 C 542.83471,563.62498 550.68756,559.74549 550.6875,554.9375 L 550.6875,512.28125 C 550.6875,510.37303 549.43476,508.59529 547.34375,507.15625 C 545.93273,503.91026 540.15599,501.46875 533.25,501.46875 z "
         style="fill:#ff0000;fill-opacity:1;stroke:none;stroke-width:8;stroke-linecap:round;stroke-linejoin:round;stroke-miterlimit:4;stroke-dasharray:none;stroke-opacity:1" />
      <path
         style="fill:url(#radialGradient16903);fill-opacity:1;stroke:none;stroke-width:8;stroke-linecap:round;stroke-linejoin:round;stroke-miterlimit:4;stroke-dasharray:none;stroke-opacity:1"
         d="M 533.25,501.46875 C 526.37005,501.46867 520.62598,503.89729 519.1875,507.125 C 517.06808,508.57098 515.78125,510.35592 515.78125,512.28125 L 515.78125,554.9375 C 515.78125,559.74547 523.60273,563.625 533.21875,563.625 C 542.83471,563.62498 550.68756,559.74549 550.6875,554.9375 L 550.6875,512.28125 C 550.6875,510.37303 549.43476,508.59529 547.34375,507.15625 C 545.93273,503.91026 540.15599,501.46875 533.25,501.46875 z "
         id="path16756"
         sodipodi:nodetypes="ccccscccc" />
      <path
         id="path16658"
         d="M 533.25,501.46875 C 526.37005,501.46867 520.62598,503.89729 519.1875,507.125 C 517.06808,508.57098 515.78125,510.35592 515.78125,512.28125 L 515.78125,514.9375 C 515.78125,519.74547 523.60273,523.625 533.21875,523.625 C 542.83471,523.62498 550.68756,519.74549 550.6875,514.9375 L 550.6875,512.28125 C 550.6875,510.37303 549.43476,508.59529 547.34375,507.15625 C 545.93273,503.91026 540.15599,501.46875 533.25,501.46875 z "
         style="fill:#d3d3d3;fill-opacity:1;stroke:none;stroke-width:8;stroke-linecap:round;stroke-linejoin:round;stroke-miterlimit:4;stroke-dasharray:none;stroke-opacity:1" />
      <path
         id="path16704"
         d="M 533.25,501.46875 C 526.37005,501.46867 520.62598,503.89729 519.1875,507.125 C 519.17514,507.13343 519.16856,507.14779 519.15625,507.15625 C 518.90482,507.32903 518.66359,507.50551 518.4375,507.6875 C 518.42595,507.69677 518.41773,507.70946 518.40625,507.71875 C 518.23878,507.85468 518.05898,507.98429 517.90625,508.125 C 517.85374,508.17308 517.80079,508.23264 517.75,508.28125 C 517.55056,508.47417 517.35836,508.67408 517.1875,508.875 C 517.00526,509.0893 516.83565,509.30865 516.6875,509.53125 C 516.54082,509.75165 516.42417,509.95977 516.3125,510.1875 C 516.24499,510.32518 516.17925,510.45363 516.125,510.59375 C 516.03739,510.8115 515.96026,511.02687 515.90625,511.25 C 515.88986,511.32064 515.88798,511.39761 515.875,511.46875 C 515.86877,511.50155 515.84924,511.5296 515.84375,511.5625 C 515.80622,511.79571 515.78125,512.04333 515.78125,512.28125 L 515.78125,514.9375 C 515.78125,515.238 515.81544,515.5199 515.875,515.8125 C 515.99427,516.39755 516.22235,516.98674 516.5625,517.53125 C 516.73237,517.80371 516.93562,518.05229 517.15625,518.3125 C 517.81889,519.09237 518.71434,519.82549 519.78125,520.46875 C 520.84718,521.113 522.07795,521.68756 523.46875,522.15625 C 524.39657,522.46808 525.39474,522.71808 526.4375,522.9375 C 528.52202,523.37734 530.81475,523.625 533.21875,523.625 C 535.62274,523.62499 537.91263,523.37734 540,522.9375 C 541.04422,522.71809 542.03909,522.46808 542.96875,522.15625 C 544.36222,521.68756 545.61876,521.113 546.6875,520.46875 C 547.40812,520.03545 548.01968,519.56067 548.5625,519.0625 C 548.83177,518.81599 549.09116,518.57271 549.3125,518.3125 C 549.97733,517.53263 550.41417,516.69008 550.59375,515.8125 C 550.65353,515.5199 550.6875,515.238 550.6875,514.9375 L 550.6875,512.28125 C 550.6875,512.01151 550.64204,511.73237 550.59375,511.46875 C 550.58014,511.39586 550.57972,511.32239 550.5625,511.25 C 550.50213,510.99623 550.41593,510.74694 550.3125,510.5 C 550.10959,510.01557 549.82527,509.54577 549.46875,509.09375 C 549.33517,508.92439 549.18484,508.75778 549.03125,508.59375 C 548.88146,508.43375 548.7308,508.27958 548.5625,508.125 C 548.40893,507.98372 548.26195,507.85514 548.09375,507.71875 C 548.00119,507.64349 547.90945,507.57373 547.8125,507.5 C 547.73089,507.4379 547.6471,507.37346 547.5625,507.3125 C 547.49167,507.26151 547.41668,507.20644 547.34375,507.15625 C 545.93273,503.91026 540.15599,501.46875 533.25,501.46875 z M 533.25,502.03125 C 540.58479,502.03122 546.53125,504.98889 546.53125,508.65625 C 546.5313,512.32362 540.58478,515.3125 533.25,515.3125 C 525.91523,515.31257 519.96875,512.32362 519.96875,508.65625 C 519.96875,504.98886 525.91522,502.03125 533.25,502.03125 z "
         style="fill:url(#radialGradient16905);fill-opacity:1;stroke:none;stroke-width:8;stroke-linecap:round;stroke-linejoin:round;stroke-miterlimit:4;stroke-dasharray:none;stroke-opacity:1" />
      <path
         id="path16576"
         d="M 533.25,501.46875 C 526.37005,501.46867 520.62598,503.89729 519.1875,507.125 C 519.17514,507.13343 519.16856,507.14779 519.15625,507.15625 C 518.90413,507.32903 518.66425,507.50551 518.4375,507.6875 C 518.42595,507.69677 518.41773,507.70946 518.40625,507.71875 C 518.23829,507.85468 518.05945,507.98429 517.90625,508.125 C 517.85374,508.17308 517.80079,508.23264 517.75,508.28125 C 517.54994,508.47417 517.35891,508.67408 517.1875,508.875 C 517.00467,509.08931 516.83615,509.30864 516.6875,509.53125 C 516.54033,509.75165 516.42456,509.95977 516.3125,510.1875 C 516.24475,510.32518 516.17944,510.45363 516.125,510.59375 C 516.03739,510.8115 515.96026,511.02687 515.90625,511.25 C 515.8898,511.32065 515.88803,511.39761 515.875,511.46875 C 515.86877,511.50155 515.84924,511.5296 515.84375,511.5625 C 515.80608,511.79571 515.78125,512.04332 515.78125,512.28125 L 515.78125,514.9375 C 515.78125,515.238 515.81522,515.5199 515.875,515.8125 C 515.99427,516.39755 516.22235,516.98674 516.5625,517.53125 C 516.73295,517.80371 516.93491,518.05229 517.15625,518.3125 C 517.81889,519.09237 518.71434,519.82549 519.78125,520.46875 C 520.1375,520.6835 520.51096,520.89706 520.90625,521.09375 C 521.30092,521.29011 521.69424,521.47939 522.125,521.65625 C 522.13395,521.65994 522.14728,521.65257 522.15625,521.65625 C 522.57891,521.82909 523.01432,522.00352 523.46875,522.15625 C 523.47823,522.15945 523.49051,522.15306 523.5,522.15625 C 524.41984,522.46413 525.40512,522.72027 526.4375,522.9375 C 526.44754,522.93963 526.4587,522.93538 526.46875,522.9375 C 526.98076,523.04468 527.49585,523.16715 528.03125,523.25 C 528.04155,523.25161 528.05219,523.2484 528.0625,523.25 C 528.59863,523.33243 529.16205,523.38082 529.71875,523.4375 C 529.72912,523.43857 529.73962,523.43644 529.75,523.4375 C 530.3072,523.49371 530.86255,523.5647 531.4375,523.59375 C 532.0334,523.62448 532.63816,523.625 533.25,523.625 C 535.79041,523.62275 538.19426,523.33304 540.375,522.84375 C 541.13354,522.67356 541.86581,522.50149 542.5625,522.28125 C 543.64379,521.93944 544.65928,521.54201 545.5625,521.09375 C 545.95684,520.89706 546.33219,520.6835 546.6875,520.46875 C 547.40812,520.03545 548.01968,519.56067 548.5625,519.0625 C 548.83096,518.81599 549.09187,518.57271 549.3125,518.3125 C 549.97733,517.53263 550.41417,516.69008 550.59375,515.8125 C 550.65331,515.5199 550.6875,515.238 550.6875,514.9375 L 550.6875,512.28125 C 550.6875,512.01151 550.64186,511.73237 550.59375,511.46875 C 550.58014,511.39586 550.57972,511.32239 550.5625,511.25 C 550.50213,510.99623 550.41593,510.74694 550.3125,510.5 C 550.10959,510.01557 549.82527,509.54577 549.46875,509.09375 C 549.33517,508.92439 549.18484,508.75778 549.03125,508.59375 C 548.88193,508.43375 548.73028,508.27958 548.5625,508.125 C 548.40893,507.98372 548.26195,507.85514 548.09375,507.71875 C 548.00146,507.64349 547.90917,507.57373 547.8125,507.5 C 547.73089,507.4379 547.6471,507.37346 547.5625,507.3125 C 547.49187,507.26151 547.41648,507.20644 547.34375,507.15625 C 545.93273,503.91026 540.15599,501.46875 533.25,501.46875 z M 533.25,502.03125 C 540.58479,502.03122 546.53125,504.98889 546.53125,508.65625 C 546.5313,512.32362 540.58478,515.3125 533.25,515.3125 C 525.91523,515.31257 519.96875,512.32362 519.96875,508.65625 C 519.96875,504.98886 525.91522,502.03125 533.25,502.03125 z "
         style="fill:url(#radialGradient16907);fill-opacity:1;stroke:none;stroke-width:8;stroke-linecap:round;stroke-linejoin:round;stroke-miterlimit:4;stroke-dasharray:none;stroke-opacity:1" />
      <path
         sodipodi:nodetypes="cscsc"
         id="path16732"
         d="M 547.25,560.09375 C 544.06273,562.23626 538.9674,563.62499 533.21875,563.625 C 527.51984,563.625 522.46502,562.26718 519.28125,560.15625 C 520.85529,563.28975 526.50437,565.62508 533.25,565.625 C 540.03896,565.625 545.71834,563.25746 547.25,560.09375 z "
         style="fill:#d3d3d3;fill-opacity:1;stroke:none;stroke-width:8;stroke-linecap:round;stroke-linejoin:round;stroke-miterlimit:4;stroke-dasharray:none;stroke-opacity:1" />
      <path
         id="path16582"
         d="M 517.625,508.40625 C 517.47161,508.55964 517.32188,508.71749 517.1875,508.875 C 517.11825,508.95617 517.06484,509.04248 517,509.125 L 517,510.3125 C 516.99997,514.86735 524.29889,518.56246 533.25,518.5625 C 542.20112,518.56251 549.46875,514.86735 549.46875,510.3125 L 549.46875,509.09375 C 549.33517,508.92439 549.18484,508.75778 549.03125,508.59375 C 548.97152,508.52975 548.90511,508.46878 548.84375,508.40625 C 546.94764,512.73875 540.70072,515.93753 533.25,515.9375 C 525.79905,515.93752 519.52755,512.73887 517.625,508.40625 z "
         style="fill:url(#radialGradient16909);fill-opacity:1;stroke:none;stroke-width:8;stroke-linecap:round;stroke-linejoin:round;stroke-miterlimit:4;stroke-dasharray:none;stroke-opacity:1" />
      <path
         sodipodi:nodetypes="csssc"
         id="path16584"
         d="M 533.24775,502.02667 C 540.58253,502.02664 546.53258,504.98398 546.53258,508.65134 C 546.53264,512.31871 540.58253,515.31146 533.24775,515.31146 C 525.91297,515.31153 519.96289,512.31871 519.96289,508.65134 C 519.96289,504.98395 525.91297,502.02667 533.24775,502.02667 z "
         style="fill:url(#radialGradient16911);fill-opacity:1;stroke:none;stroke-width:8;stroke-linecap:round;stroke-linejoin:round;stroke-miterlimit:4;stroke-dasharray:none;stroke-opacity:1" />
      <path
         style="fill:url(#radialGradient16913);fill-opacity:1;stroke:none;stroke-width:8;stroke-linecap:round;stroke-linejoin:round;stroke-miterlimit:4;stroke-dasharray:none;stroke-opacity:1"
         d="M 533.24775,502.02667 C 540.58253,502.02664 546.53258,504.98398 546.53258,508.65134 C 546.53264,512.31871 540.58253,515.31146 533.24775,515.31146 C 525.91297,515.31153 519.96289,512.31871 519.96289,508.65134 C 519.96289,504.98395 525.91297,502.02667 533.24775,502.02667 z "
         id="path16586"
         sodipodi:nodetypes="csssc" />
      <path
         id="path16716"
         d="M 515.90625,511.25 C 515.8898,511.32065 515.88803,511.39761 515.875,511.46875 C 515.86877,511.50155 515.84924,511.5296 515.84375,511.5625 C 515.80608,511.79571 515.78125,512.04332 515.78125,512.28125 L 515.78125,514.9375 C 515.78125,515.07657 515.79876,515.20974 515.8125,515.34375 C 517.33541,519.17986 524.5843,522.06246 533.25,522.0625 C 541.91571,522.06249 549.13881,519.17986 550.65625,515.34375 C 550.67002,515.20974 550.6875,515.07657 550.6875,514.9375 L 550.6875,512.28125 C 550.6875,512.01151 550.64186,511.73237 550.59375,511.46875 C 550.58014,511.39586 550.57972,511.32239 550.5625,511.25 C 548.92518,515.93374 541.80752,519.43753 533.25,519.4375 C 524.69221,519.4375 517.54918,515.9339 515.90625,511.25 z "
         style="fill:url(#radialGradient16915);fill-opacity:1;stroke:none;stroke-width:8;stroke-linecap:round;stroke-linejoin:round;stroke-miterlimit:4;stroke-dasharray:none;stroke-opacity:1" />
      <path
         sodipodi:nodetypes="cccscccsc"
         id="path16727"
         d="M 516.125,552.625 C 515.91096,553.16554 515.78125,553.7109 515.78125,554.28125 L 515.78125,554.9375 C 515.78125,559.74547 523.60273,563.625 533.21875,563.625 C 542.83471,563.62498 550.68756,559.74549 550.6875,554.9375 L 550.6875,554.28125 C 550.6875,553.71849 550.58228,553.15972 550.375,552.625 C 548.79065,556.62061 541.67807,559.62498 533.21875,559.625 C 524.76504,559.625 517.70985,556.6166 516.125,552.625 z "
         style="fill:#d3d3d3;fill-opacity:1;stroke:none;stroke-width:8;stroke-linecap:round;stroke-linejoin:round;stroke-miterlimit:4;stroke-dasharray:none;stroke-opacity:1" />
      <path
         style="fill:url(#radialGradient16917);fill-opacity:1;stroke:none;stroke-width:8;stroke-linecap:round;stroke-linejoin:round;stroke-miterlimit:4;stroke-dasharray:none;stroke-opacity:1"
         d="M 547.25,560.09375 C 544.06273,562.23626 538.9674,563.62499 533.21875,563.625 C 527.51984,563.625 522.46502,562.26718 519.28125,560.15625 C 520.85529,563.28975 526.50437,565.62508 533.25,565.625 C 540.03896,565.625 545.71834,563.25746 547.25,560.09375 z "
         id="path16740"
         sodipodi:nodetypes="cscsc" />
      <path
         style="fill:url(#radialGradient16919);fill-opacity:1;stroke:none;stroke-width:8;stroke-linecap:round;stroke-linejoin:round;stroke-miterlimit:4;stroke-dasharray:none;stroke-opacity:1"
         d="M 516.125,552.625 C 515.91096,553.16554 515.78125,553.7109 515.78125,554.28125 L 515.78125,554.9375 C 515.78125,559.74547 523.60273,563.625 533.21875,563.625 C 542.83471,563.62498 550.68756,559.74549 550.6875,554.9375 L 550.6875,554.28125 C 550.6875,553.71849 550.58228,553.15972 550.375,552.625 C 548.79065,556.62061 541.67807,559.62498 533.21875,559.625 C 524.76504,559.625 517.70985,556.6166 516.125,552.625 z "
         id="path16746"
         sodipodi:nodetypes="cccscccsc" />
      <path
         sodipodi:nodetypes="ccccssssc"
         id="rect16764"
         d="M 518.83246,520.58159 L 518.83246,554.14818 C 519.76609,554.88741 520.92255,555.52975 522.25264,556.07127 L 522.25264,522.50468 C 522.12661,522.45185 521.98986,522.41229 521.86649,522.35899 C 521.85857,522.35556 521.84681,522.36243 521.83891,522.35899 C 521.45871,522.19408 521.11155,522.0176 520.7632,521.83451 C 520.41431,521.65112 520.08468,521.45199 519.77025,521.25176 C 519.43828,521.04033 519.12444,520.81209 518.83246,520.58159 z "
         style="opacity:0.61187212;color:#000000;fill:url(#linearGradient16921);fill-opacity:1;fill-rule:nonzero;stroke:none;stroke-width:0.1;stroke-linecap:round;stroke-linejoin:round;marker:none;marker-start:none;marker-mid:none;marker-end:none;stroke-miterlimit:4;stroke-dasharray:none;stroke-dashoffset:0;stroke-opacity:1;visibility:visible;display:inline;overflow:visible" />
      <path
         style="opacity:0.61187212;color:#000000;fill:url(#linearGradient16923);fill-opacity:1;fill-rule:nonzero;stroke:none;stroke-width:0.1;stroke-linecap:round;stroke-linejoin:round;marker:none;marker-start:none;marker-mid:none;marker-end:none;stroke-miterlimit:4;stroke-dasharray:none;stroke-dashoffset:0;stroke-opacity:1;visibility:visible;display:inline;overflow:visible"
         d="M 519.89146,521.00546 L 519.89146,555.86256 C 520.94925,556.63021 522.2595,557.29725 523.76646,557.85959 L 523.76646,523.00249 C 523.62367,522.94763 523.46873,522.90655 523.32896,522.8512 C 523.31999,522.84764 523.30666,522.85477 523.29771,522.8512 C 522.86695,522.67995 522.47363,522.49668 522.07896,522.30655 C 521.68367,522.11611 521.31021,521.90933 520.95396,521.7014 C 520.57785,521.48184 520.22227,521.24483 519.89146,521.00546 z "
         id="path16776"
         sodipodi:nodetypes="ccccssssc" />
      <path
         sodipodi:nodetypes="csssc"
         id="path16780"
         d="M 523.63628,508.63023 C 523.63628,506.93558 526.3921,505.56022 529.78762,505.56022 C 533.18316,505.56022 531.611,506.93558 531.611,508.63023 C 531.611,510.32487 533.18316,511.70022 529.78762,511.70022 C 526.3921,511.70022 523.63628,510.32487 523.63628,508.63023 z "
         style="opacity:0.61187212;color:#000000;fill:url(#linearGradient16925);fill-opacity:1;fill-rule:nonzero;stroke:none;stroke-width:0.1;stroke-linecap:round;stroke-linejoin:round;marker:none;marker-start:none;marker-mid:none;marker-end:none;stroke-miterlimit:4;stroke-dashoffset:0;stroke-opacity:1;visibility:visible;display:inline;overflow:visible" />
      <path
         style="opacity:0.61187212;color:#000000;fill:url(#radialGradient16927);fill-opacity:1;fill-rule:nonzero;stroke:none;stroke-width:0.1;stroke-linecap:round;stroke-linejoin:round;marker:none;marker-start:none;marker-mid:none;marker-end:none;stroke-miterlimit:4;stroke-dashoffset:0;stroke-opacity:1;visibility:visible;display:inline;overflow:visible"
         d="M 523.63628,508.63023 C 523.63628,506.93558 526.3921,505.56022 529.78762,505.56022 C 533.18316,505.56022 531.611,506.93558 531.611,508.63023 C 531.611,510.32487 533.18316,511.70022 529.78762,511.70022 C 526.3921,511.70022 523.63628,510.32487 523.63628,508.63023 z "
         id="path16785"
         sodipodi:nodetypes="csssc" />
      <path
         transform="translate(1.023335,-0.170556)"
         d="M 532.93006 508.60181 A 0.93805701 0.93805701 0 1 1  531.05395,508.60181 A 0.93805701 0.93805701 0 1 1  532.93006 508.60181 z"
         sodipodi:ry="0.93805701"
         sodipodi:rx="0.93805701"
         sodipodi:cy="508.60181"
         sodipodi:cx="531.992"
         id="path16791"
         style="opacity:0.61187212;color:#000000;fill:#ababab;fill-opacity:1;fill-rule:nonzero;stroke:none;stroke-width:0.1;stroke-linecap:round;stroke-linejoin:round;marker:none;marker-start:none;marker-mid:none;marker-end:none;stroke-miterlimit:4;stroke-dasharray:none;stroke-dashoffset:0;stroke-opacity:1;visibility:visible;display:inline;overflow:visible"
         sodipodi:type="arc" />
      <path
         sodipodi:type="arc"
         style="opacity:0.61187212;color:#000000;fill:#8b8b8b;fill-opacity:1;fill-rule:nonzero;stroke:none;stroke-width:0.1;stroke-linecap:round;stroke-linejoin:round;marker:none;marker-start:none;marker-mid:none;marker-end:none;stroke-miterlimit:4;stroke-dasharray:none;stroke-dashoffset:0;stroke-opacity:1;visibility:visible;display:inline;overflow:visible"
         id="path16793"
         sodipodi:cx="531.992"
         sodipodi:cy="508.60181"
         sodipodi:rx="0.93805701"
         sodipodi:ry="0.93805701"
         d="M 532.93006 508.60181 A 0.93805701 0.93805701 0 1 1  531.05395,508.60181 A 0.93805701 0.93805701 0 1 1  532.93006 508.60181 z"
         transform="matrix(0.464944,0,0,0.464944,285.7595,271.7263)" />
    </g>
  </g>
</svg>
